<svg  viewBox="0 0 14 14" fill="none" xmlns="http://www.w3.org/2000/svg">
    <path
        fillRule="evenodd"
        clipRule="evenodd"
        d="M3.01712 6.99998C3.01712 6.54531 3.09259 6.10934 3.22745 5.7005L0.868227 3.89899C0.408414 4.8325 0.149414 5.88447 0.149414 6.99998C0.149414 8.11462 0.408195 9.16583 0.867242 10.0988L3.22515 8.29378C3.0916 7.8868 3.01712 7.45247 3.01712 6.99998Z"
        fill="#FBBC05"
    />
    <path
        fillRule="evenodd"
        clipRule="evenodd"
        d="M7.1593 2.86366C8.14707 2.86366 9.03924 3.21366 9.74023 3.78634L11.7794 1.75C10.5368 0.668172 8.94365 0 7.1593 0C4.38905 0 2.00818 1.58419 0.868164 3.899L3.22727 5.70052C3.77087 4.05048 5.32038 2.86366 7.1593 2.86366Z"
        fill="#EA4335"
    />
    <path
        fillRule="evenodd"
        clipRule="evenodd"
        d="M7.1593 11.1364C5.32049 11.1364 3.77098 9.94953 3.22738 8.2995L0.868164 10.1007C2.00818 12.4158 4.38905 14 7.1593 14C8.86905 14 10.5015 13.3929 11.7266 12.2554L9.48724 10.5242C8.85538 10.9222 8.05968 11.1364 7.1593 11.1364Z"
        fill="#34A853"
    />
    <path
        fillRule="evenodd"
        clipRule="evenodd"
        d="M13.8504 6.99998C13.8504 6.58633 13.7866 6.14084 13.6911 5.72729H7.15918V8.43181H10.9191C10.731 9.35395 10.2194 10.0628 9.48712 10.5242L11.7265 12.2553C13.0134 11.061 13.8504 9.28165 13.8504 6.99998Z"
        fill="#4285F4"
    />
</svg>
